<!DOCTYPE svg PUBLIC "-//W3C//DTD SVG 1.1//EN" "http://www.w3.org/Graphics/SVG/1.1/DTD/svg11.dtd">
<!-- Uploaded to: SVG Repo, www.svgrepo.com, Transformed by: SVG Repo Mixer Tools -->
<svg fill="#808080" width="800px" height="800px" viewBox="0 0 32 32" id="icon" xmlns="http://www.w3.org/2000/svg">
<g id="SVGRepo_bgCarrier" stroke-width="0"/>
<g id="SVGRepo_tracerCarrier" stroke-linecap="round" stroke-linejoin="round"/>
<g id="SVGRepo_iconCarrier">
<defs>
<style>.cls-1{fill:none;}</style>
</defs>
<title>industry</title>
<path d="M29.53,6.15a1,1,0,0,0-1,0L20,10.38V7a1,1,0,0,0-1.45-.89L10,10.38V3A1,1,0,0,0,9,2H3A1,1,0,0,0,2,3V28H30V7A1,1,0,0,0,29.53,6.15ZM22,26H18V19h4Zm6,0H24V18a1,1,0,0,0-1-1H17a1,1,0,0,0-1,1v8H4V4H8v9.62l10-5v5l10-5Z" transform="translate(0 0)"/>
<rect id="_Transparent_Rectangle_" data-name="&lt;Transparent Rectangle&gt;" class="cls-1" width="32" height="32"/>
</g>
</svg>